
        <svg xmlns="http://www.w3.org/2000/svg" xmlns:xlink="http://www.w3.org/1999/xlink" version="1.1" width="3187.5" height="1135.302197802198" viewBox="0 0 3187.5 1135.302197802198">
			
			<g transform="scale(9.375) translate(10, 10)">
				<defs id="SvgjsDefs3757"/><g id="SvgjsG3758" featureKey="symbolFeature-0" transform="matrix(1.098901098901099,0,0,1.098901098901099,0,0)" fill="#000">    <title xmlns="http://www.w3.org/2000/svg">X Symbols-11</title>    <g xmlns="http://www.w3.org/2000/svg" id="Page-1" stroke="none" stroke-width="1" fill-rule="evenodd">        <g id="Artboard" transform="translate(-2132.000000, -1234.000000)" fill-rule="nonzero">            <g id="X-Symbols-11" transform="translate(2132.000000, 1234.000000)">                <polygon id="Path" points="82 0 61.4840149 0 45.5 16.2304833 29.4888476 0 9 0 45.5 37"/>                <polygon id="Path" points="91 9 54 45.5135637 90.9450223 82 90.9450223 61.4916388 74.7540862 45.5135637 91 29.4812337"/>                <polygon id="Path" points="0.0274888559 82 37 45.5135637 0 9 0 29.4812337 16.218425 45.5135637 0.0274888559 61.4916388"/>                <polygon id="Path" points="9 91 29.4931303 91 45.5135537 74.7540862 61.533977 91 82 91 45.5135537 54"/>            </g>        </g>    </g></g><g id="SvgjsG3759" featureKey="nameFeature-0" transform="matrix(0.8421761984089814,0,0,0.8421761984089814,118.5514569146417,25.20768003883962)" fill="#000"><path d="M1.72 31.4 l2.64 0 c0.44 5.16 3.88 7.04 8.28 7.04 c5.16 0 7.32 -2.8 7.32 -5.96 c0 -8.92 -17.56 -3 -17.56 -14.32 c0 -4 3.32 -7.72 9.76 -7.72 c6.48 0 9.72 3.92 9.68 8.6 l-2.6 0 c0 -4.4 -3.4 -6.28 -7.08 -6.28 c-5.52 0 -7.52 3.4 -7.04 6.36 c1.24 7.44 17.56 2.08 17.56 13.24 c0 5.28 -3.88 8.4 -10.52 8.4 c-6 0 -10.44 -3.12 -10.44 -9.36 z M40.88 32.36 l0 -3.24 c-2.04 0.84 -4.12 1 -6.2 1.16 c-3.64 0.28 -5.84 1.6 -5.84 4.4 c0 2.52 2.2 3.72 4.48 3.72 c3.8 0 7.56 -1.84 7.56 -6.04 z M33.52 28.36 l3.32 -0.44 c0.88 -0.08 2.36 -0.32 3.16 -0.68 s0.88 -1.44 0.88 -2.16 c0 -2.44 -1.44 -4.2 -5.16 -4.2 c-3.32 0 -5.6 1.08 -6.04 4.68 l-2.44 0 c0.36 -4.88 4 -6.84 8.52 -6.84 c4.2 0 7.52 1.64 7.52 6.44 l0 11.28 c0 1.88 0.48 2.32 2.52 1.6 l0 1.88 c-0.36 0.12 -1.2 0.4 -1.88 0.4 c-0.4 0 -0.72 -0.04 -1.08 -0.12 c-1.6 -0.24 -1.88 -1.64 -1.92 -3.08 c-2 2.24 -4.72 3.44 -7.72 3.44 c-3.64 0 -6.92 -1.96 -6.92 -5.96 c0 -3.48 2.4 -5.6 7.24 -6.24 z M51.96000000000001 28.84 l0 11.16 l-2.4 0 l0 -20.72 l2.4 0 l0 2.88 c1.92 -2.04 3.8 -3.44 6.68 -3.44 c2.52 0 4.84 0.8 6.32 2.96 c1 1.48 1.04 3.04 1.04 4.76 l0 13.56 l-2.4 0 l0 -13.52 c0 -3.72 -1.52 -5.6 -5.36 -5.6 c-2.96 0 -5 1.92 -5.76 4.04 c-0.48 1.32 -0.52 2.48 -0.52 3.92 z M72.44000000000001 19.28 l2.4 0 l0 23.48 c0 3.52 -0.32 5.4 -4.16 5.4 c-0.52 0 -1.04 -0.04 -1.56 -0.16 l0 -2.12 c2.76 0.36 3.32 -0.64 3.32 -2.8 l0 -23.8 z M74.96000000000002 11.2 l0 3.56 l-2.64 0 l0 -3.56 l2.64 0 z M94.24000000000001 32.36 l0 -3.24 c-2.04 0.84 -4.12 1 -6.2 1.16 c-3.64 0.28 -5.84 1.6 -5.84 4.4 c0 2.52 2.2 3.72 4.48 3.72 c3.8 0 7.56 -1.84 7.56 -6.04 z M86.88000000000001 28.36 l3.32 -0.44 c0.88 -0.08 2.36 -0.32 3.16 -0.68 s0.88 -1.44 0.88 -2.16 c0 -2.44 -1.44 -4.2 -5.16 -4.2 c-3.32 0 -5.6 1.08 -6.04 4.68 l-2.44 0 c0.36 -4.88 4 -6.84 8.52 -6.84 c4.2 0 7.52 1.64 7.52 6.44 l0 11.28 c0 1.88 0.48 2.32 2.52 1.6 l0 1.88 c-0.36 0.12 -1.2 0.4 -1.88 0.4 c-0.4 0 -0.72 -0.04 -1.08 -0.12 c-1.6 -0.24 -1.88 -1.64 -1.92 -3.08 c-2 2.24 -4.72 3.44 -7.72 3.44 c-3.64 0 -6.92 -1.96 -6.92 -5.96 c0 -3.48 2.4 -5.6 7.24 -6.24 z M105.32000000000002 28.84 l0 11.16 l-2.4 0 l0 -20.72 l2.4 0 l0 2.88 c1.92 -2.04 3.8 -3.44 6.68 -3.44 c2.52 0 4.84 0.8 6.32 2.96 c1 1.48 1.04 3.04 1.04 4.76 l0 13.56 l-2.4 0 l0 -13.52 c0 -3.72 -1.52 -5.6 -5.36 -5.6 c-2.96 0 -5 1.92 -5.76 4.04 c-0.48 1.32 -0.52 2.48 -0.52 3.92 z M138.72000000000003 32.36 l0 -3.24 c-2.04 0.84 -4.12 1 -6.2 1.16 c-3.64 0.28 -5.84 1.6 -5.84 4.4 c0 2.52 2.2 3.72 4.48 3.72 c3.8 0 7.56 -1.84 7.56 -6.04 z M131.36000000000004 28.36 l3.32 -0.44 c0.88 -0.08 2.36 -0.32 3.16 -0.68 s0.88 -1.44 0.88 -2.16 c0 -2.44 -1.44 -4.2 -5.16 -4.2 c-3.32 0 -5.6 1.08 -6.04 4.68 l-2.44 0 c0.36 -4.88 4 -6.84 8.52 -6.84 c4.2 0 7.52 1.64 7.52 6.44 l0 11.28 c0 1.88 0.48 2.32 2.52 1.6 l0 1.88 c-0.36 0.12 -1.2 0.4 -1.88 0.4 c-0.4 0 -0.72 -0.04 -1.08 -0.12 c-1.6 -0.24 -1.88 -1.64 -1.92 -3.08 c-2 2.24 -4.72 3.44 -7.72 3.44 c-3.64 0 -6.92 -1.96 -6.92 -5.96 c0 -3.48 2.4 -5.6 7.24 -6.24 z M147.92000000000004 40 l-2.8 0 l11.32 -28.8 l3.08 0 l11.04 28.8 l-2.8 0 l-3.32 -9.04 l-13.12 0 z M157.88000000000005 13.52 l-5.64 15.12 l11.28 0 z M173.92000000000004 47.88 l0 -2.24 c0.64 0.12 1.32 0.24 2 0.24 c2.72 0 3.12 -3.92 4.04 -5.72 l-8.04 -20.88 l2.68 0 l6.64 17.8 l6.64 -17.8 l2.6 0 l-7.72 20.44 c-1.96 5.2 -3.24 8.44 -6.56 8.44 c-0.84 0 -1.64 -0.12 -2.28 -0.28 z M193.04000000000005 33.519999999999996 l2.44 0 c0.76 3.56 2.6 4.88 6.2 4.88 c3.48 0 5.12 -1.84 5.12 -3.84 c0 -6 -13.28 -1.76 -13.28 -9.92 c0 -3.44 2.68 -5.92 7.28 -5.92 c4.48 0 7.4 1.84 8 6.52 l-2.44 0 c-0.44 -3.2 -2.6 -4.36 -5.6 -4.36 c-3.04 0 -4.68 1.44 -4.68 3.56 c0 5.64 13.28 2.12 13.28 10.08 c0 3.96 -3.56 6.04 -8.44 6.04 s-7.68 -3.12 -7.88 -7.04 z M216.48000000000005 40 l-2.4 0 l0 -28.8 l2.4 0 l0 10.96 c1.92 -2.04 3.8 -3.44 6.68 -3.44 c2.52 0 4.84 0.8 6.32 2.96 c1 1.48 1.04 3.04 1.04 4.76 l0 13.56 l-2.4 0 l0 -13.52 c0 -3.72 -1.52 -5.6 -5.36 -5.6 c-2.96 0 -5 1.92 -5.76 4.04 c-0.48 1.32 -0.52 2.48 -0.52 3.92 l0 11.16 z M239.08000000000004 40 l-2.4 0 l0 -20.72 l2.4 0 l0 20.72 z M239.20000000000005 14.760000000000002 l-2.64 0 l0 -3.56 l2.64 0 l0 3.56 z"/></g>
			</g>
		</svg>
	